<svg id="Layer_1" data-name="Layer 1" xmlns="http://www.w3.org/2000/svg" viewBox="0 0 734 734"><defs><style>.cls-1{fill:#1699bc;}.cls-2{fill:#36a7c5;}.cls-3{fill:#5cb7d0;}.cls-4{fill:#0993b8;}.cls-5{fill:#fff;}</style></defs><title>button absen</title><circle class="cls-1" cx="367" cy="367" r="367"/><circle class="cls-2" cx="366.5" cy="368.5" r="326"/><circle class="cls-3" cx="364.5" cy="369.5" r="284"/><circle class="cls-4" cx="366" cy="370" r="241.5"/><path class="cls-5" d="M399.43,419.78V392.57a19.46,19.46,0,0,0-38.91,0v24.57a119.42,119.42,0,0,1-30.7,80l-27.3,30.33a6.21,6.21,0,0,0,9.23,8.31l27.3-30.33a131.86,131.86,0,0,0,33.89-88.32V392.57a7,7,0,0,1,14.07,0v27.21a145.8,145.8,0,0,1-38,98.28L322.4,547.33a6.21,6.21,0,0,0,9.19,8.35l26.61-29.27A158.18,158.18,0,0,0,399.43,419.78Z" transform="translate(-9.5 -3.46)"/><path class="cls-5" d="M425.91,392.57a45.94,45.94,0,0,0-91.88,0v24.57a93,93,0,0,1-23.9,62.29L290.72,501a6.21,6.21,0,1,0,9.23,8.3l19.41-21.56a105.38,105.38,0,0,0,27.09-70.6V392.57a33.53,33.53,0,0,1,67.05,0v27.21a172.26,172.26,0,0,1-44.88,116.09l-22.46,24.7a6.21,6.21,0,1,0,9.19,8.35l22.45-24.7a184.58,184.58,0,0,0,48.11-124.44Z" transform="translate(-9.5 -3.46)"/><path class="cls-5" d="M452.4,392.57a72.43,72.43,0,1,0-144.86,0v24.57a66.52,66.52,0,0,1-17.1,44.57L273,481.13a6.21,6.21,0,0,0,9.23,8.31L299.67,470A79,79,0,0,0,320,417.14V392.57a60,60,0,0,1,120,0v27.21a198.65,198.65,0,0,1-51.78,133.91L382,560.53a6.21,6.21,0,0,0,9.19,8.35L397.4,562a211,211,0,0,0,55-142.26V392.57Z" transform="translate(-9.5 -3.46)"/><path class="cls-5" d="M281.06,392.57a6.21,6.21,0,1,0,12.41,0A86.65,86.65,0,0,1,367.61,307a6.21,6.21,0,0,0-1.76-12.29,99.07,99.07,0,0,0-84.79,97.91Z" transform="translate(-9.5 -3.46)"/><path class="cls-5" d="M293.47,417.14a6.21,6.21,0,1,0-12.41,0A40.05,40.05,0,0,1,270.75,444l-15.54,17.27a6.21,6.21,0,0,0,9.23,8.31L280,452.3A52.49,52.49,0,0,0,293.47,417.14Z" transform="translate(-9.5 -3.46)"/><path class="cls-5" d="M466.71,472.55a6.22,6.22,0,0,0-7.58,4.44,225.36,225.36,0,0,1-8.48,25.87,6.21,6.21,0,0,0,3.49,8.06,6.12,6.12,0,0,0,2.28.44,6.23,6.23,0,0,0,5.78-3.92,240,240,0,0,0,8.94-27.31A6.22,6.22,0,0,0,466.71,472.55Z" transform="translate(-9.5 -3.46)"/><path class="cls-5" d="M446,319a6.21,6.21,0,0,0-8.3,9.24,86.63,86.63,0,0,1,28.73,64.32v27.21a228,228,0,0,1-2.11,30.92,6.21,6.21,0,1,0,12.3,1.7,240.17,240.17,0,0,0,2.23-32.62V392.57A99.08,99.08,0,0,0,446,319Z" transform="translate(-9.5 -3.46)"/><path class="cls-5" d="M417,314.41a6.21,6.21,0,0,0,5.34-11.21,98.15,98.15,0,0,0-28.26-8.54A6.21,6.21,0,0,0,392.33,307,85.76,85.76,0,0,1,417,314.41Z" transform="translate(-9.5 -3.46)"/><path class="cls-5" d="M380,267.17c-2.32,0-4.67.06-7,.19a6.21,6.21,0,1,0,.68,12.4c2.09-.12,4.21-.18,6.3-.18a113.12,113.12,0,0,1,113,113v27.21a6.21,6.21,0,0,0,12.42,0V392.57A125.55,125.55,0,0,0,380,267.17Z" transform="translate(-9.5 -3.46)"/><path class="cls-5" d="M312.09,300.85a6.17,6.17,0,0,0,3.54-1.11,112.56,112.56,0,0,1,33.72-15.94A6.21,6.21,0,0,0,346,271.85a124.76,124.76,0,0,0-37.44,17.69,6.21,6.21,0,0,0,3.55,11.31Z" transform="translate(-9.5 -3.46)"/><path class="cls-5" d="M267,417.14V392.57a112.51,112.51,0,0,1,30.8-77.45,6.2,6.2,0,1,0-9-8.51,124.84,124.84,0,0,0-34.18,86v24.57a13.62,13.62,0,0,1-3.51,9.13l-7.65,8.5a6.21,6.21,0,1,0,9.23,8.31l7.65-8.5A26,26,0,0,0,267,417.14Z" transform="translate(-9.5 -3.46)"/><path class="cls-5" d="M524,344.24a151.08,151.08,0,0,0-32.16-54.34,6.21,6.21,0,0,0-9.14,8.4,138.68,138.68,0,0,1,29.54,49.9,6.2,6.2,0,0,0,11.76-4Z" transform="translate(-9.5 -3.46)"/><path class="cls-5" d="M429,248.81a6.21,6.21,0,1,0-4,11.75,139,139,0,0,1,38.2,20.17,6.21,6.21,0,1,0,7.42-10A151.18,151.18,0,0,0,429,248.81Z" transform="translate(-9.5 -3.46)"/><path class="cls-5" d="M283.51,291.92A138.81,138.81,0,0,1,380,253.1a140.76,140.76,0,0,1,20,1.43,6.21,6.21,0,0,0,1.78-12.29A154,154,0,0,0,380,240.68a152.06,152.06,0,0,0-151.73,145,6.21,6.21,0,0,0,5.92,6.49h.28a6.21,6.21,0,0,0,6.2-5.93A138.83,138.83,0,0,1,283.51,291.92Z" transform="translate(-9.5 -3.46)"/><path class="cls-5" d="M380,214.19A178.79,178.79,0,0,0,338.86,219a6.21,6.21,0,0,0,2.86,12.09A166.24,166.24,0,0,1,380,226.61a164.53,164.53,0,0,1,119.66,51.07,6.21,6.21,0,0,0,8.95-8.6A177.92,177.92,0,0,0,380,214.19Z" transform="translate(-9.5 -3.46)"/><path class="cls-5" d="M240.52,291.51a6.21,6.21,0,0,0,8.72-1.06,167,167,0,0,1,67.36-51.27,6.21,6.21,0,0,0-4.76-11.47,179.54,179.54,0,0,0-72.38,55.08A6.22,6.22,0,0,0,240.52,291.51Z" transform="translate(-9.5 -3.46)"/><path class="cls-5" d="M293.89,219.76a6.19,6.19,0,0,0,2.7-.62,190.23,190.23,0,0,1,83.38-19,192.72,192.72,0,0,1,45,5.32,6.21,6.21,0,0,0,2.9-12.07A205.08,205.08,0,0,0,380,187.7,202.57,202.57,0,0,0,291.19,208a6.21,6.21,0,0,0,2.7,11.8Z" transform="translate(-9.5 -3.46)"/><path class="cls-5" d="M451,213.68a192.13,192.13,0,0,1,18.83,8.71,6.21,6.21,0,1,0,5.81-11,203,203,0,0,0-20-9.27,6.21,6.21,0,1,0-4.6,11.53Z" transform="translate(-9.5 -3.46)"/></svg>