<svg id="Layer_1" data-name="Layer 1" xmlns="http://www.w3.org/2000/svg" viewBox="0 0 366.93 367.7"><defs><style>.cls-1{fill:#fff;}</style></defs><title>lupa absen</title><path class="cls-1" d="M322.45,202.28a6,6,0,0,1-6.13-6.13A106.25,106.25,0,0,0,209.84,89.67c-59,0-107.24,47.5-107.24,106.48a6,6,0,0,1-6.13,6.13,6.58,6.58,0,0,1-6.13-6.13,119.65,119.65,0,0,1,119.5-119.5c65.88,0,118.74,53.62,118.74,119.5C328.58,200,326.28,202.28,322.45,202.28Z" transform="translate(-84.21 -76.65)"/><path class="cls-1" d="M304.21,266.21c3.88-2.62,7.69-5.31,11.31-8.21-25.11-7.13-42.86-35.15-42.86-60.32,0-18.38-7.66-36.77-22.22-49a61.86,61.86,0,0,0-52.09-15.32c-31.41,4.59-55.15,33.7-55.15,67.41a52.15,52.15,0,0,1-52.09,52.09,6.13,6.13,0,1,0,0,12.26A65.06,65.06,0,0,0,156.22,200c0-27.58,19.15-50.56,44.43-54.39a52.42,52.42,0,0,1,42.13,12.26c11.49,10,18.39,23.75,18.39,39.07C261.17,224.05,278.43,253.91,304.21,266.21Z" transform="translate(-84.21 -76.65)"/><path class="cls-1" d="M332.41,239.05a42.83,42.83,0,0,1-42.9-42.9,80.37,80.37,0,0,0-27.58-60.52c-17.62-15.32-40.6-22.21-63.58-18.38-39.07,5.36-68.18,40.6-68.18,82a39.55,39.55,0,0,1-39.83,39.83,6.13,6.13,0,0,1,0-12.26,27.46,27.46,0,0,0,27.58-27.57c0-47.5,33.7-88.1,78.9-94.23a93.58,93.58,0,0,1,74.31,21.45,91.07,91.07,0,0,1,32.17,69.71,30.73,30.73,0,0,0,30.64,30.64,6,6,0,0,1,6.13,6.13C338.54,236,335.47,239.05,332.41,239.05Z" transform="translate(-84.21 -76.65)"/><path class="cls-1" d="M113.32,344.76c-3.06,0-6.13-2.29-6.13-5.36a5.65,5.65,0,0,1,5.37-6.89c125.63-20.69,123.33-128.7,123.33-133.29,0-7.66-3.07-15.32-9.19-19.92-6.13-5.36-13.79-6.9-21.45-6.13-13,1.53-22.22,14.56-22.22,29.11,0,48.26-40.6,88.86-90.39,88.86a6.13,6.13,0,1,1,0-12.25c42.9,0,77.37-34.48,77.37-76.61,0-20.68,14.55-38.3,33.7-41.37,11.49-1.53,23,1.54,31.41,9.2s13.79,18.38,13.79,29.11c0,.76,2.3,123.33-134.82,145.54Z" transform="translate(-84.21 -76.65)"/><path class="cls-1" d="M101.83,318c-3.06,0-6.13-2.29-6.13-5.36-.76-3.83,1.53-6.89,5.36-7.66,108.78-18.39,102.65-106.48,102.65-110.31s2.3-6.89,6.13-6.89c3.07,0,6.9,2.29,6.9,6.12,0,.77,7.66,103.42-112.61,124.1Z" transform="translate(-84.21 -76.65)"/><path class="cls-1" d="M277.84,285.06a124.93,124.93,0,0,1,10.44-8.15,62,62,0,0,1-20.22-21.77c-1.53-1.54-3.06-3.07-6.13-3.07a5.77,5.77,0,0,0-5.36,3.83c0,.77-33.7,86.57-133.29,101.89-3.83.76-6.13,3.83-5.36,7.66,0,3.06,3.06,5.36,6.13,5.36h.76c85.8-13.79,125.63-74.31,138.66-99.59A76.61,76.61,0,0,0,277.84,285.06Z" transform="translate(-84.21 -76.65)"/><path class="cls-1" d="M258.32,312.85c-14.13,18.4-51.59,58.78-121.25,76.35a6.79,6.79,0,0,0-4.6,7.66,6.69,6.69,0,0,0,6.13,4.59c.77,0,.77,0,1.53-.76,56.35-14.49,92.39-41.76,113.14-62.86A74.29,74.29,0,0,1,258.32,312.85Z" transform="translate(-84.21 -76.65)"/><path class="cls-1" d="M270.13,310.91a64.16,64.16,0,0,0-5,13.74l1.24-1.55A58.85,58.85,0,0,1,270.13,310.91Z" transform="translate(-84.21 -76.65)"/><path class="cls-1" d="M258.41,365.84c-.26-.61-.5-1.22-.73-1.83a5.74,5.74,0,0,0-2.64,1.44c-.77.76-39.83,36.77-92.69,51.32a6.16,6.16,0,0,0-4.6,7.66,5.83,5.83,0,0,0,6.13,4.6h2.3c52.4-14.36,91.35-48.22,97.3-53.69A59.53,59.53,0,0,1,258.41,365.84Z" transform="translate(-84.21 -76.65)"/><path class="cls-1" d="M279.46,398.54a43.91,43.91,0,0,1-6.31-7.4c-29.1,25.21-65.68,40.95-66.37,40.95a6.45,6.45,0,0,0-3.07,8.43c1.54,2.3,3.83,3.83,6.13,3.83a2.81,2.81,0,0,0,2.3-.77c1.4-.7,39.4-16.81,70.5-43.63A5.61,5.61,0,0,1,279.46,398.54Z" transform="translate(-84.21 -76.65)"/><path class="cls-1" d="M347.73,444.35A103.48,103.48,0,0,1,244.31,340.93c0-56.68,46-104.18,103.42-104.18s103.42,46.73,103.42,104.18A103.47,103.47,0,0,1,347.73,444.35Zm0-184.62a80.44,80.44,0,0,0,0,160.87c44.43.77,80.44-35.24,80.44-79.67C428.17,295.74,392.16,259.73,347.73,259.73Z" transform="translate(-84.21 -76.65)"/></svg>